<svg id="Calque_1" data-name="Calque 1" xmlns="http://www.w3.org/2000/svg" viewBox="0 0 404.27 404.48"><defs><style>.cls-1,.cls-2{opacity:0.23;}.cls-2{fill:#fff;}</style></defs><path class="cls-1" d="M402.37,269C505.3,315.86,549,436.08,503.88,536.38,458.18,637.94,338,684.19,236.15,637.48,133.58,590.42,89.06,470.59,136,369.05,182.61,268.21,302.52,223.6,402.37,269ZM444.14,492.5A138.88,138.88,0,0,0,496,479.62c8.36-4,12.54-9.16,12.74-19.28.69-35.7-6.21-69.52-24.25-100.24-4.72-8-13.95-14-22.12-19.3-25.57-16.7-54.6-23.42-84.49-26.58-16.29-1.72-32.71-3.42-49-3.12-36.32.67-71.6-5.1-106.4-14.56-6.88-1.86-11.94-1-17.65,3.47-21.45,16.81-39.16,36.66-52.33,60.6-2,3.56-1.48,5.36,1.62,7.67,18.06,13.41,36.26,26.66,53.89,40.63,12.31,9.75,23.33,21.16,35.77,30.72,10.84,8.32,22.87,15.08,30.64,20.11C331.71,482.87,386.39,496,444.14,492.5Zm38.92-.74c-25.75,7.77-52.23,9.14-78.77,6.9-52.56-4.43-102.56-18.28-149.28-43.07-22.87-12.13-42-29.24-61.23-46.3-14.23-12.62-29.05-24.58-43.61-36.82a22,22,0,0,0-1.95-1.35c-5.74,6.16-5.29,7.57.52,12.92,11.79,10.85,24.29,21.2,34.46,33.45a202.21,202.21,0,0,0,75.37,56.93c27.73,12.19,55,25.83,83.65,35.43,46.49,15.58,93.95,16.37,141.07.62,2.35-.78,4.54-2.13,6.92-2.76,13.11-3.46,14.72-13.89,15.5-24.81C498.11,485.91,490.76,489.44,483.06,491.76Zm-44,90.62c-21.2-2.38-42.61-3.6-63.57-7.31-29.32-5.17-58.45-11.57-87.38-18.6-22.17-5.38-42.64-15.68-62.15-27.26-30.87-18.33-61.11-37.72-91.63-56.66-1.23-.76-2.52-1.43-5-2.82,1.31,7.92,2.29,14.75,3.71,21.49.26,1.23,2.18,2.32,3.55,3,47.64,25.15,96.19,48.29,146.85,66.81a160.77,160.77,0,0,1,22.12,10.07c28.28,15.53,58.74,24.91,89.89,32.45,8.21,2,16.4,4,24.64,5.82,1.76.38,4.27.47,5.53-.5,9.72-7.42,19.22-15.14,28.78-22.77-.25-.61-.5-1.23-.76-1.85C448.79,583.66,443.93,582.93,439.05,582.38ZM321.13,606.07c-30.48-11.44-59.29-26.28-87-43.3-29-17.78-58.88-33.74-90.69-45.91-.9-.35-1.82-.64-3.21-1.12a9.69,9.69,0,0,0,.38,2.63c7,13.7,13.88,27.44,21.15,41,1,1.85,3.75,3.18,6,3.9,34,11,68,22.08,102.1,32.8,32.7,10.29,65.28,20.94,96.46,35.28,7.29,3.36,12.83,1.22,19.33-1.66C363.68,621.66,342.34,614,321.13,606.07ZM446.6,571.15c-17.29.19-33.73-4.28-50.11-9.16-29.47-8.77-59.77-13.31-90.26-16.44-34.94-3.6-65.18-17.22-91.74-40.09-26.09-22.46-52.77-44.24-79.2-66.31-1.6-1.33-3.28-2.58-6.06-4.77-.09,9.17-.29,17.06-.12,24.93,0,1.32,1.38,3,2.59,3.82,41.33,27.57,82.52,55.35,127.9,76.11a220.44,220.44,0,0,0,54.45,16.62c15.64,2.73,31.19,6.11,46.6,9.93,22.45,5.58,45.28,7.92,68.26,9.54,7.76.55,15.65.84,23.17,2.56,7,1.6,11-.66,14.23-7.24C459.46,570.83,453,571.08,446.6,571.15ZM171,570.9c1,1.72,1.49,2.59,2,3.45.09.14.21.26.31.39,10.46,12.92,22.72,22,39.14,27.79,27.87,9.77,54.68,22.65,81.69,34.74,7.45,3.34,14.71,5.33,22.86,5.17a210.06,210.06,0,0,0,46.22-5.64C300.68,608.19,235,593.66,171,570.9ZM451.88,316.43a16.24,16.24,0,0,0-5.45-3.24c-34.83-14.45-71.55-19.83-108.83-23.09-31.64-2.77-63.18-6.7-94.78-10a13.42,13.42,0,0,0-6.62,1.06,70.48,70.48,0,0,0-14.44,8.66c7.85,2,15.75,3.93,23.56,6.11,30.33,8.46,61.44,8.93,92.6,9.29,32.29.38,64.15,4.21,94.77,14.89,10.73,3.75,20.91,9.07,31.34,13.7,1.46.65,2.84,1.46,4.26,2.2l.74-1C463.34,328.79,457.73,322.5,451.88,316.43ZM137,432.59c26.35,21.92,53,43.54,78.83,66,27.41,23.77,58.42,38.28,94.81,41.26,34.47,2.81,68,10.49,101.11,20.28,19.16,5.68,38.64,4.88,58.16,3.16,5.89-.52,6.32-6.48,9.43-10-.76-.35-1.08-.64-1.33-.59-27.93,5.66-55.48,2.55-82.66-4.31C358.4,539.07,321.46,530,283.7,524.54c-22.68-3.3-42.62-13.38-60.13-27.89Q187.81,467,152.75,436.57c-7.09-6.14-13.15-13.46-19.87-20.43C129.35,425.65,129.71,426.54,137,432.59Zm2.84,75c7.82,3.59,15.76,6.92,23.68,10.3C190.23,529.29,215.32,543.8,240,559c33.61,20.63,69.46,36.44,106.22,50.33,13.93,5.27,28.18,9.67,42.18,14.74,4.89,1.77,9.16,1.58,13.63-1.14,4.18-2.55,8.65-4.64,12.85-8.09-4.72-1.18-9.45-2.39-14.18-3.56-26.51-6.56-53.62-11.73-77.88-24.78-29.61-15.92-61.7-25.77-92.08-39.71s-60.48-28.53-90.71-42.83c-1.18-.56-2.37-1.1-3.56-1.65l-1.18,1.33C136.8,505,138.08,506.77,139.82,507.57ZM484.7,532.65C449,548,413,547.87,376.55,535.79c-32.83-10.87-65.77-21.41-98.67-32.06-31.25-10.11-59.64-25.24-84.15-47.37-17.81-16.08-35.85-31.89-53.8-47.82-1.41-1.25-2.84-2.49-4.27-3.74l-1.24,1a39.22,39.22,0,0,0,2.69,4.47c11.55,14.63,25.06,27.23,39.45,39,16,13.1,31.87,26.38,47.45,40,16.51,14.4,35.24,24.19,56.78,27.86,42.43,7.24,84.2,17.39,126,27.35a159.83,159.83,0,0,0,68,1.81c10.91-2.11,12.76-3.85,15.31-16.68A57.62,57.62,0,0,1,484.7,532.65ZM137.87,394.92a4.64,4.64,0,0,0,1,3.83c26.71,23.47,51.22,49.49,80.4,70.11,19.13,13.52,40.54,22.36,62.62,29.65,17.1,5.64,34.34,10.87,51.59,16-17.63-7.56-35.36-14.91-52.87-22.74-23.73-10.61-48-20.58-68.28-37.2-12.09-9.89-23.08-21.27-33.73-32.76-11.61-12.53-23.22-24.93-37.91-35.47A80.06,80.06,0,0,0,137.87,394.92ZM350.33,520.8c10,3.12,20,6.43,30.14,9.3,21.6,6.15,43.48,9.87,66.13,7.45,16.62-1.78,31.62-8.55,46.66-14.94,3.07-1.3,4.22-7.17,6.86-12.06C450.35,533.19,400.66,530.36,350.33,520.8Zm40.19-243.9c-19.4-14.16-90.16-19.8-115.12-9.09C314,273.36,352,273.58,390.52,276.9ZM405.36,285c-33.35-2.42-66.71-4.57-100-7.29-13.83-1.12-27.55-3.53-41.35-5.1-3.57-.4-7.24.17-10.87.28l-.12,1.63a15.25,15.25,0,0,0,2.8.85q42.22,4.27,84.46,8.48c29,2.92,57.83,7,86.08,14.44,1.26.33,2.55.56,3.83.84C422.41,293.45,415.79,285.79,405.36,285ZM214.06,608.53c6.62,10.09,50.19,28.49,66.47,28.35Z" transform="translate(-117.33 -251.25)"/><path class="cls-2" d="M243.69,439.63c-12.44-9.56-23.46-21-35.77-30.72-17.63-14-35.83-27.22-53.89-40.63-3.1-2.31-3.58-4.11-1.62-7.67,13.17-23.94,30.88-43.79,52.33-60.6,5.71-4.48,10.77-5.33,17.65-3.47,34.8,9.46,70.08,15.23,106.4,14.56,16.33-.3,32.75,1.4,49,3.12,29.89,3.16,58.92,9.88,84.49,26.58,8.17,5.34,17.4,11.27,22.12,19.3,18,30.72,24.94,64.54,24.25,100.24-.2,10.12-4.38,15.31-12.74,19.28a138.88,138.88,0,0,1-51.81,12.88c-57.75,3.46-112.43-9.63-169.81-32.76C266.56,454.71,254.53,448,243.69,439.63Zm96.41,12.46c31.66,14.69,64.84,22.22,99.79,19.56a104,104,0,0,0,30.3-6.89C489.56,457,499.5,439.81,496,419.22c-6.38-37-27.17-63.26-63.15-74.89-37.89-12.24-77.06-19-116.76-22.6-21.59-1.94-43.14-4.41-64.75-6-12.76-.94-25.72-.28-37.78,4.33A67.23,67.23,0,0,0,193.19,332c-10.55,9.32-12.13,22.2-6.08,35,4.33,9.16,11.42,15.76,19.55,21.37,16.63,11.49,35.42,18.61,53.77,26.62,8.49,3.71,16.84,7.74,25.26,11.63l-.14.3Q312.82,439.48,340.1,452.09Z" transform="translate(-117.33 -251.25)"/><path class="cls-2" d="M505.71,482.9c-7.6,3-14.95,6.54-22.65,8.86-25.75,7.77-52.23,9.14-78.77,6.9-52.56-4.43-102.56-18.28-149.28-43.07-22.87-12.13-42-29.24-61.23-46.3-14.23-12.62-29.05-24.58-43.61-36.82a22,22,0,0,0-1.95-1.35c-5.74,6.16-5.29,7.57.52,12.92,11.79,10.85,24.29,21.2,34.46,33.45a202.21,202.21,0,0,0,75.37,56.93c27.73,12.19,55,25.83,83.65,35.43,46.49,15.58,93.95,16.37,141.07.62,2.35-.78,4.54-2.13,6.92-2.76C503.32,504.25,504.93,493.82,505.71,482.9Z" transform="translate(-117.33 -251.25)"/><path class="cls-2" d="M453.65,584.3c-4.86-.64-9.72-1.37-14.6-1.92-21.2-2.38-42.61-3.6-63.57-7.31-29.32-5.17-58.45-11.57-87.38-18.6-22.17-5.38-42.64-15.68-62.15-27.26-30.87-18.33-61.11-37.72-91.63-56.66-1.23-.76-2.52-1.43-5-2.82,1.31,7.92,2.29,14.75,3.71,21.49.26,1.23,2.18,2.32,3.55,3,47.64,25.15,96.19,48.29,146.85,66.81a160.77,160.77,0,0,1,22.12,10.07c28.28,15.53,58.74,24.91,89.89,32.45,8.21,2,16.4,4,24.64,5.82,1.76.38,4.27.47,5.53-.5,9.72-7.42,19.22-15.14,28.78-22.77C454.16,585.54,453.91,584.92,453.65,584.3Z" transform="translate(-117.33 -251.25)"/><path class="cls-2" d="M385.6,629.68c-21.92-8-43.26-15.65-64.47-23.61-30.48-11.44-59.29-26.28-87-43.3-29-17.78-58.88-33.74-90.69-45.91-.9-.35-1.82-.64-3.21-1.12a9.69,9.69,0,0,0,.38,2.63c7,13.7,13.88,27.44,21.15,41,1,1.85,3.75,3.18,6,3.9,34,11,68,22.08,102.1,32.8,32.7,10.29,65.28,20.94,96.46,35.28C373.56,634.7,379.1,632.56,385.6,629.68Z" transform="translate(-117.33 -251.25)"/><path class="cls-2" d="M466.31,570.65c-6.85.18-13.28.43-19.71.5-17.29.19-33.73-4.28-50.11-9.16-29.47-8.77-59.77-13.31-90.26-16.44-34.94-3.6-65.18-17.22-91.74-40.09-26.09-22.46-52.77-44.24-79.2-66.31-1.6-1.33-3.28-2.58-6.06-4.77-.09,9.17-.29,17.06-.12,24.93,0,1.32,1.38,3,2.59,3.82,41.33,27.57,82.52,55.35,127.9,76.11a220.44,220.44,0,0,0,54.45,16.62c15.64,2.73,31.19,6.11,46.6,9.93,22.45,5.58,45.28,7.92,68.26,9.54,7.76.55,15.65.84,23.17,2.56C459,579.49,463.05,577.23,466.31,570.65Z" transform="translate(-117.33 -251.25)"/><path class="cls-2" d="M363.17,636.8C300.68,608.19,235,593.66,171,570.9c1,1.72,1.49,2.59,2,3.45.09.14.21.26.31.39,10.46,12.92,22.72,22,39.14,27.79,27.87,9.77,54.68,22.65,81.69,34.74,7.45,3.34,14.71,5.33,22.86,5.17A210.06,210.06,0,0,0,363.17,636.8Z" transform="translate(-117.33 -251.25)"/><path class="cls-2" d="M469,335c-5.69-6.21-11.3-12.5-17.15-18.57a16.24,16.24,0,0,0-5.45-3.24c-34.83-14.45-71.55-19.83-108.83-23.09-31.64-2.77-63.18-6.7-94.78-10a13.42,13.42,0,0,0-6.62,1.06,70.48,70.48,0,0,0-14.44,8.66c7.85,2,15.75,3.93,23.56,6.11,30.33,8.46,61.44,8.93,92.6,9.29,32.29.38,64.15,4.21,94.77,14.89,10.73,3.75,20.91,9.07,31.34,13.7,1.46.65,2.84,1.46,4.26,2.2Z" transform="translate(-117.33 -251.25)"/><path class="cls-2" d="M132.88,416.14c-3.53,9.51-3.17,10.4,4.1,16.45,26.35,21.92,53,43.54,78.83,66,27.41,23.77,58.42,38.28,94.81,41.26,34.47,2.81,68,10.49,101.11,20.28,19.16,5.68,38.64,4.88,58.16,3.16,5.89-.52,6.32-6.48,9.43-10-.76-.35-1.08-.64-1.33-.59-27.93,5.66-55.48,2.55-82.66-4.31C358.4,539.07,321.46,530,283.7,524.54c-22.68-3.3-42.62-13.38-60.13-27.89Q187.81,467,152.75,436.57C145.66,430.43,139.6,423.11,132.88,416.14Z" transform="translate(-117.33 -251.25)"/><path class="cls-2" d="M135.31,503.6c1.49,1.35,2.77,3.17,4.51,4,7.82,3.59,15.76,6.92,23.68,10.3C190.23,529.29,215.32,543.8,240,559c33.61,20.63,69.46,36.44,106.22,50.33,13.93,5.27,28.18,9.67,42.18,14.74,4.89,1.77,9.16,1.58,13.63-1.14,4.18-2.55,8.65-4.64,12.85-8.09-4.72-1.18-9.45-2.39-14.18-3.56-26.51-6.56-53.62-11.73-77.88-24.78-29.61-15.92-61.7-25.77-92.08-39.71s-60.48-28.53-90.71-42.83c-1.18-.56-2.37-1.1-3.56-1.65Z" transform="translate(-117.33 -251.25)"/><path class="cls-2" d="M490.16,529.58a57.62,57.62,0,0,1-5.46,3.07C449,548,413,547.87,376.55,535.79c-32.83-10.87-65.77-21.41-98.67-32.06-31.25-10.11-59.64-25.24-84.15-47.37-17.81-16.08-35.85-31.89-53.8-47.82-1.41-1.25-2.84-2.49-4.27-3.74l-1.24,1a39.22,39.22,0,0,0,2.69,4.47c11.55,14.63,25.06,27.23,39.45,39,16,13.1,31.87,26.38,47.45,40,16.51,14.4,35.24,24.19,56.78,27.86,42.43,7.24,84.2,17.39,126,27.35a159.83,159.83,0,0,0,68,1.81C485.76,544.15,487.61,542.41,490.16,529.58Z" transform="translate(-117.33 -251.25)"/><path class="cls-2" d="M140.71,386.32a80.06,80.06,0,0,0-2.84,8.6,4.64,4.64,0,0,0,1,3.83c26.71,23.47,51.22,49.49,80.4,70.11,19.13,13.52,40.54,22.36,62.62,29.65,17.1,5.64,34.34,10.87,51.59,16-17.63-7.56-35.36-14.91-52.87-22.74-23.73-10.61-48-20.58-68.28-37.2-12.09-9.89-23.08-21.27-33.73-32.76C167,409.26,155.4,396.86,140.71,386.32Z" transform="translate(-117.33 -251.25)"/><path class="cls-2" d="M500.12,510.55c-49.77,22.64-99.46,19.81-149.79,10.25,10,3.12,20,6.43,30.14,9.3,21.6,6.15,43.48,9.87,66.13,7.45,16.62-1.78,31.62-8.55,46.66-14.94C496.33,521.31,497.48,515.44,500.12,510.55Z" transform="translate(-117.33 -251.25)"/><path class="cls-2" d="M275.4,267.81c38.62,5.55,76.61,5.77,115.12,9.09C371.12,262.74,300.36,257.1,275.4,267.81Z" transform="translate(-117.33 -251.25)"/><path class="cls-2" d="M430.16,299.17c-7.75-5.72-14.37-13.38-24.8-14.13-33.35-2.42-66.71-4.57-100-7.29-13.83-1.12-27.55-3.53-41.35-5.1-3.57-.4-7.24.17-10.87.28l-.12,1.63a15.25,15.25,0,0,0,2.8.85q42.22,4.27,84.46,8.48c29,2.92,57.83,7,86.08,14.44C427.59,298.66,428.88,298.89,430.16,299.17Z" transform="translate(-117.33 -251.25)"/><path class="cls-2" d="M280.53,636.88l-66.47-28.35C220.68,618.62,264.25,637,280.53,636.88Z" transform="translate(-117.33 -251.25)"/><path class="cls-1" d="M285.69,426.57c-8.42-3.89-16.77-7.92-25.26-11.63-18.35-8-37.14-15.13-53.77-26.62-8.13-5.61-15.22-12.21-19.55-21.37-6.05-12.79-4.47-25.67,6.08-35a67.23,67.23,0,0,1,20.32-11.9c12.06-4.61,25-5.27,37.78-4.33,21.61,1.59,43.16,4.06,64.75,6,39.7,3.56,78.87,10.36,116.76,22.6,36,11.63,56.77,37.89,63.15,74.89,3.55,20.59-6.39,37.81-25.76,45.54a104,104,0,0,1-30.3,6.89c-34.95,2.66-68.13-4.87-99.79-19.56q-27.25-12.64-54.55-25.22Zm142.52-73.49c18.05,7.34,30.69,20.35,38.63,38a54.39,54.39,0,0,1,2.94,8.44c5.13,19.57-2.52,35.09-22.22,39.24-38.89,8.19-77.79,10.84-113.21-12.68-20.13-13.36-41.82-23.44-64-32.62a108.5,108.5,0,0,1-15.76-8.35c-9.65-6-13.47-15.28-12.78-26.31.65-10.42,7.67-16.13,16.46-20,11.39-5,23.55-7.08,35.83-7.39,14.86-.37,29.76.27,44.64.51a28.5,28.5,0,0,0,6.5-.21c-1.16-.27-2.3-.6-3.48-.79-34.2-5.34-68.5-9.76-103.25-8.56-7.08.25-14.14,1.48-21.17,2.55a32.35,32.35,0,0,0-8,2.6c-22.23,9.89-26.27,32-8.18,48.21a108.59,108.59,0,0,0,25,16.84c39.69,19,79.51,37.83,119.71,55.78A202.65,202.65,0,0,0,435.2,466a98.24,98.24,0,0,0,27.27-4.69c23.23-7.61,33.17-26.63,26.63-50.24s-21.77-40.51-42-53.37c-13.85-8.79-29.42-12.35-45.29-14.6C410.6,346.44,419.49,349.54,428.21,353.08Zm-94,66.25c22.36,14,46.17,21.18,72.75,17.47,7.7-1.07,15.47-1.64,23.19-2.6a79,79,0,0,0,9.26-1.86c22.29-5.55,28.9-19.71,18.42-40.3-9.16-18-23-31.22-42.27-37.74C372.84,339.89,329,333.62,284,338.4A87,87,0,0,0,264.72,343a37,37,0,0,0-11.85,7c-7.33,6.41-7.8,15-.87,21.79a83,83,0,0,0,15.92,11.66c5.53,3.27,11.65,5.54,17.51,8.24l.71-1.19C302.17,400.11,318.38,409.4,334.18,419.33Z" transform="translate(-117.33 -251.25)"/><path class="cls-2" d="M401.79,343.14c8.81,3.3,17.7,6.4,26.42,9.94,18.05,7.34,30.69,20.35,38.63,38a54.39,54.39,0,0,1,2.94,8.44c5.13,19.57-2.52,35.09-22.22,39.24-38.89,8.19-77.79,10.84-113.21-12.68-20.13-13.36-41.82-23.44-64-32.62a108.5,108.5,0,0,1-15.76-8.35c-9.65-6-13.47-15.28-12.78-26.31.65-10.42,7.67-16.13,16.46-20,11.39-5,23.55-7.08,35.83-7.39,14.86-.37,29.76.27,44.64.51a28.5,28.5,0,0,0,6.5-.21c-1.16-.27-2.3-.6-3.48-.79-34.2-5.34-68.5-9.76-103.25-8.56-7.08.25-14.14,1.48-21.17,2.55a32.35,32.35,0,0,0-8,2.6c-22.23,9.89-26.27,32-8.18,48.21a108.59,108.59,0,0,0,25,16.84c39.69,19,79.51,37.83,119.71,55.78A202.65,202.65,0,0,0,435.2,466a98.24,98.24,0,0,0,27.27-4.69c23.23-7.61,33.17-26.63,26.63-50.24s-21.77-40.51-42-53.37C433.23,349,417.66,345.39,401.79,343.14Z" transform="translate(-117.33 -251.25)"/><path class="cls-2" d="M285.43,391.73c-5.86-2.7-12-5-17.51-8.24A83,83,0,0,1,252,371.83c-6.93-6.79-6.46-15.38.87-21.79a37,37,0,0,1,11.85-7A87,87,0,0,1,284,338.4c45.05-4.78,88.85,1.49,131.54,15.9,19.31,6.52,33.11,19.76,42.27,37.74,10.48,20.59,3.87,34.75-18.42,40.3a79,79,0,0,1-9.26,1.86c-7.72,1-15.49,1.53-23.19,2.6-26.58,3.71-50.39-3.43-72.75-17.47-15.8-9.93-32-19.22-48-28.79ZM317.62,339a86.79,86.79,0,0,0-26.4,3.49c-5.88,1.69-11.52,5.81-16.11,10.09-6.36,5.92-6.85,14.56-.95,21.06a64.3,64.3,0,0,0,17.68,14c9.51,4.87,19.78,8.43,30,11.81,15.88,5.27,30,13.88,44.29,22.2A121.5,121.5,0,0,0,383,429.93c19.82,7.69,44.38,1.18,56.75-14.73,9.95-12.8,9.68-27.74-.81-40.07-6.6-7.77-15.28-12.52-27.37-18C383,348.29,351,340.11,317.62,339Z" transform="translate(-117.33 -251.25)"/><path class="cls-1" d="M439,375.13c10.49,12.33,10.76,27.27.81,40.07-12.37,15.91-36.93,22.42-56.75,14.73a121.5,121.5,0,0,1-16.94-8.24c-14.31-8.32-28.41-16.93-44.29-22.2-10.19-3.38-20.46-6.94-30-11.81a64.3,64.3,0,0,1-17.68-14c-5.9-6.5-5.41-15.14.95-21.06,4.59-4.28,10.23-8.4,16.11-10.09a86.79,86.79,0,0,1,26.4-3.49c33.35,1.08,65.38,9.26,94,18.12C423.7,362.61,432.38,367.36,439,375.13ZM321.7,393.31c17.53,5.58,33.21,14.84,48.84,24.2s31.72,10.84,48.6,4.3c20.85-8.07,26-28.63,10.88-45.06a46.36,46.36,0,0,0-16.83-11.82c-30.81-11.69-62.71-19.14-95.75-20-9.19-.24-18.69,2.05-27.66,4.57-6.3,1.77-12.56,5.84-13.32,13.34s5.13,11.47,10.37,15.25c3.87,2.79,8.2,4.94,12.45,7.44C306.7,388.1,314.14,390.91,321.7,393.31Z" transform="translate(-117.33 -251.25)"/><path class="cls-2" d="M286.83,378.06c-5.24-3.78-11.13-7.84-10.37-15.25s7-11.57,13.32-13.34c9-2.52,18.47-4.81,27.66-4.57,33,.89,64.94,8.34,95.75,20A46.36,46.36,0,0,1,430,376.75c15.16,16.43,10,37-10.88,45.06-16.88,6.54-33.08,5-48.6-4.3s-31.31-18.62-48.84-24.2c-7.56-2.4-15-5.21-22.42-7.81C295,383,290.7,380.85,286.83,378.06Zm86.29,31.62c10.71,6.05,21.95,10.05,34.52,8.85a39.55,39.55,0,0,0,6.83-1.2c17.4-4.89,22-20.9,9.67-34.09C415,373.46,403,368.68,390.5,365.05c-16.48-4.78-33.44-6.43-50.51-6.8a45,45,0,0,0-14.17,2c-10.52,3.29-12.84,15-4.13,21.73,5.3,4.08,11.66,6.77,17.54,10.09l.65-1.15Z" transform="translate(-117.33 -251.25)"/><path class="cls-1" d="M339.23,392.05c-5.88-3.32-12.24-6-17.54-10.09-8.71-6.71-6.39-18.44,4.13-21.73a45,45,0,0,1,14.17-2c17.07.37,34,2,50.51,6.8,12.49,3.63,24.5,8.41,33.64,18.19,12.32,13.19,7.73,29.2-9.67,34.09a39.55,39.55,0,0,1-6.83,1.2c-12.57,1.2-23.81-2.8-34.52-8.85L339.88,390.9Zm-4.29-27.43a26.48,26.48,0,0,0-8.14,2c-5.71,2.48-6.49,7.42-1.59,11.14,3.51,2.68,7.59,4.63,11.52,6.71q16.84,8.89,33.78,17.62c6,3.1,11.84,7.05,18.25,8.76a38.63,38.63,0,0,0,18.41.45c12.49-3,16.34-17.41,7.43-26.64-4.06-4.19-9.35-7.19-12.31-9.4C379.1,366.35,357.44,362.64,334.94,364.62Z" transform="translate(-117.33 -251.25)"/><path class="cls-2" d="M414.6,384.66c8.91,9.23,5.06,23.6-7.43,26.64a38.63,38.63,0,0,1-18.41-.45c-6.41-1.71-12.23-5.66-18.25-8.76q-16.92-8.73-33.78-17.62c-3.93-2.08-8-4-11.52-6.71-4.9-3.72-4.12-8.66,1.59-11.14a26.48,26.48,0,0,1,8.14-2c22.5-2,44.16,1.73,67.35,10.64C405.25,377.47,410.54,380.47,414.6,384.66Zm-18.31,23.11c6.4.58,11.06-2.92,13.51-9s1.24-11.67-3.55-15.36c-5-3.85-10.8-7.54-16.81-9-8.52-2.12-17.55-2.42-26.39-3-4.71-.31-9,2.4-9.81,6.81a13,13,0,0,0,3.22,10.12c5.81,5.72,12.6,10.46,19.06,15.64C382.76,405.34,389.47,407.14,396.29,407.77Z" transform="translate(-117.33 -251.25)"/><path class="cls-1" d="M356.46,388.32a13,13,0,0,1-3.22-10.12c.81-4.41,5.1-7.12,9.81-6.81,8.84.6,17.87.9,26.39,3,6,1.5,11.8,5.19,16.81,9,4.79,3.69,5.95,9.44,3.55,15.36s-7.11,9.54-13.51,9c-6.82-.63-13.53-2.43-20.77-3.81C369.06,398.78,362.27,394,356.46,388.32Zm36.28,14.51c5.63,1.21,9.49-1,11.43-5.6,1.82-4.27.73-8.55-3.79-11.75-11.39-8.05-24.27-10.23-37.83-8.09-5.46.87-6.6,4.7-2.35,8.37,5.45,4.7,11.67,8.52,16.62,12.05C383,399.8,387.77,401.76,392.74,402.83Z" transform="translate(-117.33 -251.25)"/><path class="cls-2" d="M376.82,397.81c6.17,2,10.95,3.95,15.92,5,5.63,1.21,9.49-1,11.43-5.6,1.82-4.27.73-8.55-3.79-11.75-11.39-8.05-24.27-10.23-37.83-8.09-5.46.87-6.6,4.7-2.35,8.37C365.65,390.46,371.87,394.28,376.82,397.81Z" transform="translate(-117.33 -251.25)"/><path d="M144.87,454.41c-3.18,1.78-5.94,3.32-8.69,4.88-2.59,1.46-5.17,2.94-8.72,5,9-35,29.54-59.1,62.46-73.92l-17.09-4.57a190.26,190.26,0,0,1,86.1-37.44c2.67-.44,4.22-1.25,5.47-3.79,7.27-14.71,18.89-26.05,30.39-37.47,3.65-3.62,7.32-7.24,10.8-11,8.71-9.44,15.83-19.75,17.59-32.89,10.49,5.57,13.57,21.78,9.65,51.17,13.26-8.55,18.08-21.78,23.4-34.9,6.92,14.81,12.18,40-.82,63.82,7.52,1.4,15,2.57,22.35,4.18,17.41,3.81,33.88,9.79,48.09,20.84,3.72,2.89,6,5.63,5.48,11.22-.4,4.26,1.85,9.69,4.71,13.15a256,256,0,0,0,22.19,23.22c5.7,5.35,12.27,9.81,19.43,15.44-17.58-4.23-33-10.2-45-22.45-6.63-6.8-12.34-14.49-18.16-22-12.06-15.6-28.61-20.34-47.39-18.7-13.23,1.16-22,10.74-24.56,25.33-.91,5.28-1.24,10.66-1.84,16-29.53-5.07-44.46-4.32-59.82,3.26l19.86,5.56c-17.75,2.1-35.42,3.87-48.09,19.93l19,.45c-5.9,28.19-2.75,36.44,19.87,51.23-36.41,1.18-67.33,13.19-92,40.85l17.19,2.13c-6.6,6.1-13.68,11.64-19.46,18.27s-10,14.15-15.28,21.73C148.1,540.51,135.8,501.2,144.87,454.41Z" transform="translate(-117.33 -251.25)"/><path d="M482.42,433.61,509,440.34c-7.3,15.15-13.77,30.29-25.83,42.13-6.32,6.21-14.25,7.94-22.53,8.17-17.81.49-35.67,0-53.46.94a414.48,414.48,0,0,0-44.89,4.74c-11.25,1.82-21.3,7.25-28.43,16.58-11.73,15.38-10.09,31.63-1.92,47.81,7.7,15.28,20.08,26,34.91,34.1a31.54,31.54,0,0,1,6.32,4c-4.3-.32-8.61-.58-12.9-1-19.2-1.78-38.27-4.38-56.33-11.59a78.85,78.85,0,0,1-15.61-8.09c-16.71-11.54-20.38-28.11-10.58-45.92,6-11,14.42-20,23.28-28.65,1.31-1.27,2.51-2.64,4.29-4.53l-23,2.29c-.15-.23-.29-.47-.44-.71,4.47-3,8.82-6.15,13.42-8.9A129.72,129.72,0,0,1,359.07,473c18.78-.51,37.62.83,56.43,1.4,17.11.52,34.21.79,51-3.51a50.1,50.1,0,0,0,8.87-3.24c10.5-4.92,14.22-13.39,10.78-24.44C485.16,440.13,483.8,437.15,482.42,433.61Z" transform="translate(-117.33 -251.25)"/></svg>